# xmcd CD database file
#
# Track frame offsets:
#	150
#	18123
#	37923
#	63333
#	73250
#	93470
#	115598
#	135420
#	152550
#
# Disc length: 2485 seconds
#
# Revision: 0
# Processed by: cddbd v1.5.2PL0 Copyright (c) Steve Scherf et al.
# Submitted via: CDex 2.12
#
DISCID=6809b309
DTITLE=Tucky Buzzard - Buzzard!
DYEAR=1973
DGENRE=Blues
TTITLE0=Who Do You Love?
TTITLE1=Run In The Mornin'
TTITLE2=Hanging On In There (Waiting For You To Come)
TTITLE3=Superboy Rock 'n' Roller '73
TTITLE4=Bo-Bo's Hampton
TTITLE5=Wine and Wimmin
TTITLE6=Superfine Lady
TTITLE7=Near To Me
TTITLE8=Shy Boy
EXTD=YEAR: 1973
EXTT0=
EXTT1=
EXTT2=
EXTT3=
EXTT4=
EXTT5=
EXTT6=
EXTT7=
EXTT8=
PLAYORDER=
